<svg id="calendar-time" xmlns="http://www.w3.org/2000/svg" width="39.573" height="39.573" viewBox="0 0 39.573 39.573">
  <path id="Tracciato_116" data-name="Tracciato 116" d="M0,0H39.573V39.573H0Z" fill="none"/>
  <path id="Tracciato_117" data-name="Tracciato 117" d="M17.5,31.382H6.3a3.3,3.3,0,0,1-3.3-3.3V8.3A3.3,3.3,0,0,1,6.3,5H26.084a3.3,3.3,0,0,1,3.3,3.3v6.6" transform="translate(1.947 3.244)" fill="none" stroke="#334556" stroke-linecap="round" stroke-linejoin="round" stroke-width="1"/>
  <path id="Tracciato_118" data-name="Tracciato 118" d="M20.6,20.6m-6.6,0A6.6,6.6,0,1,0,20.6,14,6.6,6.6,0,0,0,14,20.6" transform="translate(9.084 9.084)" fill="none" stroke="#334556" stroke-linecap="round" stroke-linejoin="round" stroke-width="1"/>
  <path id="Tracciato_119" data-name="Tracciato 119" d="M15,3V9.6" transform="translate(9.733 1.947)" fill="none" stroke="#334556" stroke-linecap="round" stroke-linejoin="round" stroke-width="1"/>
  <path id="Tracciato_120" data-name="Tracciato 120" d="M7,3V9.6" transform="translate(4.542 1.947)" fill="none" stroke="#334556" stroke-linecap="round" stroke-linejoin="round" stroke-width="1"/>
  <path id="Tracciato_121" data-name="Tracciato 121" d="M3,11H29.382" transform="translate(1.947 7.138)" fill="none" stroke="#334556" stroke-linecap="round" stroke-linejoin="round" stroke-width="1"/>
  <path id="Tracciato_122" data-name="Tracciato 122" d="M18,16.5v2.48l1.649,1.649" transform="translate(11.68 10.704)" fill="none" stroke="#334556" stroke-linecap="round" stroke-linejoin="round" stroke-width="1"/>
  <path id="Tracciato_123" data-name="Tracciato 123" d="M36.275,30.379" fill="none" stroke="#707070" stroke-width="1"/>
</svg>
